<svg xmlns="http://www.w3.org/2000/svg" width="273.29401mm" height="89.30378mm" viewBox="0 0 273.29401 89.30378"><g style="stroke-width:.341041"><g style="stroke-width:.341041"><path d="M0 0h-6.915v-3.297H0v-7.771c-1.347-.528-2.561-.817-4.354-.817h-7.854c-.738 0-1.335.597-1.335 1.328V7.842h10.098V10.5h-15.819v-22.4a2.65 2.65 0 0 1 2.647-2.65h12.263c1.87 0 3.378.329 4.354.945v-10.013h5.525v36.951H0Zm8.849-23.618h5.525v36.951H8.849Z" style="fill:#e30613;fill-opacity:1;fill-rule:nonzero;stroke:none;stroke-width:.341041" transform="matrix(1.03441 0 0 -1.03441 172.863 39.028)"/></g><g style="stroke-width:.341041"><path d="M0 0h-6.403c-1.689-7.024-10.014-10.567-13.068-11.013l1.597-2.357c3.116.381 10.23 2.936 14.672 7.797C1.25-10.434 8.36-12.989 11.482-13.37l1.592 2.357C10.018-10.567 1.695-7.024 0 0m-.159 4.36v3.641h12.154v2.646H-10.91c-.732 0-1.336.592-1.336 1.332V14.3H11.5v8.952h-29.441v-2.658H5.787v-3.623h-23.728v-6.318a2.646 2.646 0 0 1 2.647-2.652h9.409V4.36h-15.148V1.695h36.119V4.36Z" style="fill:#e30613;fill-opacity:1;fill-rule:nonzero;stroke:none;stroke-width:.341041" transform="matrix(1.03441 0 0 -1.03441 130.216 49.929)"/></g><g style="stroke-width:.341041"><path d="M0 0c-9.775-9.774-25.774-9.774-35.551 0l-18.057 18.063c-9.775 9.775-9.775 25.774 0 35.548l18.057 18.06c9.777 9.775 25.776 9.775 35.551 0l18.056-18.06c9.775-9.774 9.775-25.773 0-35.548z" style="fill:#e30613;fill-opacity:1;fill-rule:nonzero;stroke:none;stroke-width:.341041" transform="matrix(1.03441 0 0 -1.03441 63.036 81.721)"/></g><g style="stroke-width:.341041"><path d="M0 0a2.666 2.666 0 0 0-1.958 4.479 2.639 2.639 0 0 0 1.855.863A2.67 2.67 0 1 0 .116.007C.079.004.043 0 0 0" style="fill:#fff;fill-opacity:1;fill-rule:nonzero;stroke:none;stroke-width:.341041" transform="matrix(1.03441 0 0 -1.03441 33.566 72.095)"/></g><g style="stroke-width:.341041"><path d="M0 0c-1.463 0-2.641-.461-3.586-1.402-2.049-2.037-3.122-6.239-3.03-11.83.116-6.897 1.759-20.422 7.183-27.387.878-1.128 1.824-2.03 2.808-2.68.955-.632 2.028-1.247 3.698-1.247.455 0 .94.042 1.452.134 3.11.747 7.004 4.208 9.904 8.818a2.373 2.373 0 0 0 2.024 1.119c.451 0 .89-.125 1.274-.369a2.374 2.374 0 0 0 1.062-1.494 2.4 2.4 0 0 0-.306-1.808c-3.665-5.827-8.504-9.917-12.939-10.943a.678.678 0 0 0-.11-.024 13.131 13.131 0 0 0-2.378-.227c-2.861 0-4.882 1.092-6.318 2.041-1.427.942-2.756 2.197-3.951 3.735-7.635 9.806-8.157 28.185-8.19 30.25-.086 4.89.619 11.515 4.44 15.308 1.865 1.854 4.201 2.79 6.944 2.79h.446c2.751 0 5.089-.938 6.952-2.79 3.823-3.79 4.524-10.418 4.445-15.308-.091-5.098-1.024-14.968-6.305-23.819a2.417 2.417 0 0 0-2.061-1.168 2.35 2.35 0 0 0-1.226.341 2.394 2.394 0 0 0-.83 3.28c3.696 6.197 5.489 13.008 5.63 21.448C7.123-7.641 6.049-3.439 4-1.402 3.055-.461 1.884 0 .421 0Z" style="fill:#fff;fill-opacity:1;fill-rule:nonzero;stroke:none;stroke-width:.341041" transform="matrix(1.03441 0 0 -1.03441 43.62 21.096)"/></g><g style="stroke-width:.341041"><path d="M0 0h-10.853v2.723h27.969V0H6.222c.536-4.288 6.765-9.732 12.623-11.383l-1.607-2.31c-4.165.658-10.977 3.877-14.108 8.621-2.885-4.744-10.312-8.043-14.108-8.621l-1.606 2.31C-6.355-9.445-.168-3.92 0 0m21.61-18.19v-2.641H5.814v-12.391H.245v12.391H-14.73v2.641z" style="fill:#e30613;fill-opacity:1;fill-rule:nonzero;stroke:none;stroke-width:.341041" transform="matrix(1.03441 0 0 -1.03441 209.598 29.157)"/></g><g style="stroke-width:.341041"><path d="M0 0c-1.484 0-2.766 1.157-2.766 2.723v7.423h21.74v4.417h-21.74v2.722h27.058V7.383H2.641V3.879c0-.824.286-1.113 1.034-1.113h21.113V0Zm.456-6.722h-7.554v2.643h36.302v-2.643H21.16v-12.351h-5.365v12.351H5.898v-12.351H.456Z" style="fill:#e30613;fill-opacity:1;fill-rule:nonzero;stroke:none;stroke-width:.341041" transform="matrix(1.03441 0 0 -1.03441 243.085 43.792)"/></g></g></svg>