<svg width="1920" height="1080" viewBox="0 0 1920 1080" fill="none" xmlns="http://www.w3.org/2000/svg">
<g clip-path="url(#clip0_1603_2)">
<rect width="1920" height="1080" fill="white"/>
<g filter="url(#filter0_f_1603_2)">
<ellipse cx="1693.12" cy="9.42749" rx="432.097" ry="270.693" transform="rotate(-4.76486 1693.12 9.42749)" fill="#E9B2FF" fill-opacity="0.7"/>
</g>
<g filter="url(#filter1_f_1603_2)">
<ellipse cx="1274.27" cy="375.811" rx="315.639" ry="295.896" transform="rotate(-4.76486 1274.27 375.811)" fill="#B2C5FF"/>
</g>
<circle cx="1636.59" cy="700.359" r="87.0938" fill="#86A4FF" fill-opacity="0.3"/>
<circle cx="246.186" cy="540" r="688.957" fill="url(#paint0_linear_1603_2)"/>
<path d="M342 496.96V435.28H345.84L346.4 440.56H346.56C348.64 438.907 350.88 437.44 353.28 436.16C355.733 434.88 358.24 434.24 360.8 434.24C364.587 434.24 367.733 435.147 370.24 436.96C372.8 438.773 374.72 441.307 376 444.56C377.28 447.76 377.92 451.573 377.92 456C377.92 460.853 377.04 465.013 375.28 468.48C373.52 471.893 371.227 474.507 368.4 476.32C365.573 478.133 362.48 479.04 359.12 479.04C357.147 479.04 355.093 478.587 352.96 477.68C350.827 476.773 348.693 475.493 346.56 473.84L346.64 481.68V496.96H342ZM358.8 474.96C361.52 474.96 363.947 474.187 366.08 472.64C368.213 471.04 369.893 468.827 371.12 466C372.347 463.12 372.96 459.813 372.96 456.08C372.96 452.667 372.533 449.627 371.68 446.96C370.827 444.24 369.44 442.133 367.52 440.64C365.653 439.093 363.12 438.32 359.92 438.32C357.893 438.32 355.787 438.907 353.6 440.08C351.413 441.2 349.093 442.853 346.64 445.04V469.76C348.933 471.68 351.12 473.04 353.2 473.84C355.333 474.587 357.2 474.96 358.8 474.96ZM390.438 478V435.28H394.278L394.838 443.2H394.998C396.438 440.587 398.198 438.453 400.278 436.8C402.358 435.093 404.624 434.24 407.078 434.24C407.931 434.24 408.704 434.32 409.398 434.48C410.091 434.587 410.758 434.8 411.398 435.12L410.438 439.28C409.744 439.067 409.131 438.907 408.598 438.8C408.064 438.64 407.371 438.56 406.518 438.56C404.651 438.56 402.678 439.387 400.598 441.04C398.518 442.64 396.678 445.413 395.078 449.36V478H390.438ZM434.01 479.04C430.597 479.04 427.397 478.16 424.41 476.4C421.477 474.64 419.13 472.107 417.37 468.8C415.61 465.44 414.73 461.413 414.73 456.72C414.73 451.973 415.61 447.92 417.37 444.56C419.13 441.2 421.477 438.64 424.41 436.88C427.397 435.12 430.597 434.24 434.01 434.24C436.57 434.24 439.023 434.747 441.37 435.76C443.717 436.773 445.77 438.24 447.53 440.16C449.343 442.08 450.757 444.453 451.77 447.28C452.783 450.053 453.29 453.2 453.29 456.72C453.29 461.413 452.383 465.44 450.57 468.8C448.81 472.107 446.463 474.64 443.53 476.4C440.65 478.16 437.477 479.04 434.01 479.04ZM434.01 474.96C436.783 474.96 439.263 474.213 441.45 472.72C443.637 471.173 445.343 469.04 446.57 466.32C447.85 463.547 448.49 460.347 448.49 456.72C448.49 453.04 447.85 449.84 446.57 447.12C445.343 444.347 443.637 442.187 441.45 440.64C439.263 439.093 436.783 438.32 434.01 438.32C431.237 438.32 428.757 439.093 426.57 440.64C424.383 442.187 422.677 444.347 421.45 447.12C420.223 449.84 419.61 453.04 419.61 456.72C419.61 460.347 420.223 463.547 421.45 466.32C422.677 469.04 424.383 471.173 426.57 472.72C428.757 474.213 431.237 474.96 434.01 474.96ZM460.39 498C459.323 498 458.283 497.893 457.27 497.68C456.257 497.467 455.43 497.227 454.79 496.96L455.75 493.36C456.283 493.52 456.95 493.68 457.75 493.84C458.55 494.053 459.35 494.16 460.15 494.16C462.497 494.16 464.017 493.307 464.71 491.6C465.403 489.893 465.75 487.707 465.75 485.04V435.28H470.47V485.2C470.47 487.973 470.123 490.32 469.43 492.24C468.737 494.16 467.643 495.6 466.15 496.56C464.657 497.52 462.737 498 460.39 498ZM467.99 425.36C466.923 425.36 466.043 425.013 465.35 424.32C464.657 423.573 464.31 422.613 464.31 421.44C464.31 420.32 464.657 419.413 465.35 418.72C466.043 418.027 466.923 417.68 467.99 417.68C469.057 417.68 469.937 418.027 470.63 418.72C471.377 419.413 471.75 420.32 471.75 421.44C471.75 422.613 471.377 423.573 470.63 424.32C469.937 425.013 469.057 425.36 467.99 425.36ZM502.697 479.04C499.017 479.04 495.657 478.16 492.617 476.4C489.63 474.587 487.23 472.027 485.417 468.72C483.657 465.413 482.777 461.413 482.777 456.72C482.777 453.253 483.284 450.133 484.297 447.36C485.31 444.587 486.697 442.24 488.457 440.32C490.27 438.347 492.297 436.853 494.537 435.84C496.777 434.773 499.097 434.24 501.497 434.24C504.91 434.24 507.844 435.04 510.297 436.64C512.75 438.187 514.644 440.453 515.977 443.44C517.31 446.373 517.977 449.92 517.977 454.08C517.977 454.667 517.95 455.253 517.897 455.84C517.897 456.373 517.844 456.933 517.737 457.52H487.497C487.604 460.933 488.297 463.973 489.577 466.64C490.91 469.253 492.724 471.333 495.017 472.88C497.31 474.373 500.004 475.12 503.097 475.12C505.39 475.12 507.444 474.8 509.257 474.16C511.07 473.467 512.777 472.56 514.377 471.44L516.217 474.88C514.51 475.947 512.59 476.907 510.457 477.76C508.324 478.613 505.737 479.04 502.697 479.04ZM487.497 453.76H513.657C513.657 448.64 512.564 444.773 510.377 442.16C508.19 439.547 505.23 438.24 501.497 438.24C499.204 438.24 497.044 438.853 495.017 440.08C492.99 441.307 491.31 443.067 489.977 445.36C488.644 447.653 487.817 450.453 487.497 453.76ZM545.264 479.04C541.584 479.04 538.277 478.16 535.344 476.4C532.41 474.64 530.09 472.107 528.384 468.8C526.677 465.44 525.824 461.413 525.824 456.72C525.824 451.973 526.73 447.92 528.544 444.56C530.41 441.2 532.837 438.64 535.824 436.88C538.81 435.12 542.064 434.24 545.584 434.24C548.464 434.24 550.89 434.773 552.864 435.84C554.89 436.907 556.624 438.107 558.064 439.44L555.424 442.64C554.09 441.413 552.624 440.4 551.024 439.6C549.477 438.747 547.717 438.32 545.744 438.32C542.864 438.32 540.277 439.093 537.984 440.64C535.744 442.187 533.957 444.347 532.624 447.12C531.344 449.84 530.704 453.04 530.704 456.72C530.704 460.347 531.317 463.547 532.544 466.32C533.824 469.04 535.584 471.173 537.824 472.72C540.064 474.213 542.677 474.96 545.664 474.96C547.85 474.96 549.877 474.507 551.744 473.6C553.61 472.693 555.264 471.573 556.704 470.24L559.024 473.52C557.157 475.12 555.077 476.453 552.784 477.52C550.49 478.533 547.984 479.04 545.264 479.04ZM580.328 479.04C577.501 479.04 575.288 478.507 573.688 477.44C572.141 476.32 571.021 474.773 570.328 472.8C569.688 470.827 569.368 468.533 569.368 465.92V439.28H562.808V435.76L569.528 435.28L570.088 423.04H574.008V435.28H586.248V439.28H574.008V466.24C574.008 468.907 574.461 471.04 575.368 472.64C576.328 474.24 578.248 475.04 581.128 475.04C581.928 475.04 582.808 474.933 583.768 474.72C584.728 474.453 585.581 474.133 586.328 473.76L587.448 477.44C586.221 477.867 584.968 478.24 583.688 478.56C582.461 478.88 581.341 479.04 580.328 479.04ZM340.96 588.84V526.92H348.48L349.28 531.8H349.44C351.413 530.2 353.547 528.813 355.84 527.64C358.133 526.467 360.533 525.88 363.04 525.88C366.72 525.88 369.867 526.813 372.48 528.68C375.093 530.547 377.067 533.16 378.4 536.52C379.733 539.827 380.4 543.747 380.4 548.28C380.4 553.293 379.493 557.587 377.68 561.16C375.92 564.733 373.6 567.453 370.72 569.32C367.84 571.187 364.747 572.12 361.44 572.12C359.52 572.12 357.573 571.693 355.6 570.84C353.627 569.933 351.733 568.68 349.92 567.08L350.16 574.6V588.84H340.96ZM359.68 564.36C361.813 564.36 363.707 563.747 365.36 562.52C367.067 561.293 368.4 559.507 369.36 557.16C370.373 554.76 370.88 551.853 370.88 548.44C370.88 545.347 370.507 542.707 369.76 540.52C369.067 538.28 367.973 536.573 366.48 535.4C364.987 534.173 363.013 533.56 360.56 533.56C358.853 533.56 357.147 534.013 355.44 534.92C353.787 535.773 352.027 537.107 350.16 538.92V560.44C351.867 561.88 353.547 562.893 355.2 563.48C356.853 564.067 358.347 564.36 359.68 564.36ZM409.751 572.12C405.751 572.12 402.124 571.213 398.871 569.4C395.617 567.533 393.031 564.893 391.111 561.48C389.191 558.013 388.231 553.853 388.231 549C388.231 545.427 388.791 542.227 389.911 539.4C391.031 536.52 392.551 534.093 394.471 532.12C396.391 530.093 398.551 528.547 400.951 527.48C403.351 526.413 405.804 525.88 408.311 525.88C412.204 525.88 415.484 526.76 418.151 528.52C420.817 530.227 422.844 532.653 424.231 535.8C425.617 538.893 426.311 542.52 426.311 546.68C426.311 547.587 426.257 548.467 426.151 549.32C426.097 550.12 425.991 550.813 425.831 551.4H397.271C397.537 554.173 398.257 556.573 399.431 558.6C400.657 560.573 402.231 562.12 404.151 563.24C406.124 564.307 408.364 564.84 410.871 564.84C412.844 564.84 414.684 564.547 416.391 563.96C418.097 563.373 419.751 562.573 421.351 561.56L424.551 567.4C422.524 568.733 420.257 569.853 417.751 570.76C415.297 571.667 412.631 572.12 409.751 572.12ZM397.191 545H418.311C418.311 541.267 417.457 538.36 415.751 536.28C414.097 534.2 411.671 533.16 408.471 533.16C406.657 533.16 404.951 533.613 403.351 534.52C401.751 535.427 400.391 536.76 399.271 538.52C398.204 540.28 397.511 542.44 397.191 545ZM436.663 571V526.92H444.183L444.983 534.84H445.143C446.743 532.013 448.636 529.827 450.823 528.28C453.01 526.68 455.303 525.88 457.703 525.88C458.77 525.88 459.676 525.96 460.423 526.12C461.17 526.28 461.89 526.493 462.583 526.76L460.983 534.84C460.183 534.573 459.463 534.387 458.823 534.28C458.183 534.173 457.41 534.12 456.503 534.12C454.743 534.12 452.876 534.84 450.903 536.28C448.93 537.667 447.25 540.12 445.863 543.64V571H436.663ZM480.536 572.12C477.55 572.12 474.563 571.533 471.576 570.36C468.643 569.187 466.11 567.72 463.976 565.96L468.376 559.96C470.296 561.507 472.243 562.76 474.216 563.72C476.243 564.627 478.43 565.08 480.776 565.08C483.39 565.08 485.31 564.52 486.536 563.4C487.816 562.227 488.456 560.813 488.456 559.16C488.456 557.827 487.976 556.707 487.016 555.8C486.11 554.893 484.91 554.12 483.416 553.48C481.923 552.787 480.376 552.147 478.776 551.56C476.803 550.813 474.856 549.933 472.936 548.92C471.07 547.853 469.523 546.52 468.296 544.92C467.07 543.267 466.456 541.213 466.456 538.76C466.456 536.253 467.07 534.04 468.296 532.12C469.576 530.2 471.39 528.68 473.736 527.56C476.083 526.44 478.883 525.88 482.136 525.88C485.07 525.88 487.736 526.387 490.136 527.4C492.59 528.413 494.67 529.64 496.376 531.08L492.136 536.76C490.59 535.64 489.016 534.733 487.416 534.04C485.816 533.293 484.136 532.92 482.376 532.92C479.923 532.92 478.11 533.453 476.936 534.52C475.763 535.533 475.176 536.813 475.176 538.36C475.176 539.587 475.603 540.6 476.456 541.4C477.31 542.2 478.43 542.893 479.816 543.48C481.256 544.067 482.776 544.68 484.376 545.32C485.923 545.853 487.443 546.493 488.936 547.24C490.483 547.933 491.87 548.787 493.096 549.8C494.323 550.76 495.31 551.96 496.056 553.4C496.856 554.787 497.256 556.52 497.256 558.6C497.256 561.053 496.616 563.32 495.336 565.4C494.056 567.48 492.19 569.133 489.736 570.36C487.283 571.533 484.216 572.12 480.536 572.12ZM524.734 572.12C521.107 572.12 517.694 571.213 514.494 569.4C511.347 567.533 508.787 564.893 506.814 561.48C504.894 558.013 503.934 553.853 503.934 549C503.934 544.093 504.894 539.933 506.814 536.52C508.787 533.053 511.347 530.413 514.494 528.6C517.694 526.787 521.107 525.88 524.734 525.88C527.4 525.88 529.987 526.413 532.494 527.48C535 528.493 537.214 529.987 539.134 531.96C541.054 533.933 542.574 536.36 543.694 539.24C544.814 542.067 545.374 545.32 545.374 549C545.374 553.853 544.387 558.013 542.414 561.48C540.494 564.893 537.96 567.533 534.814 569.4C531.72 571.213 528.36 572.12 524.734 572.12ZM524.734 564.44C527.027 564.44 529 563.8 530.654 562.52C532.36 561.24 533.667 559.453 534.574 557.16C535.48 554.813 535.934 552.093 535.934 549C535.934 545.907 535.48 543.213 534.574 540.92C533.667 538.573 532.36 536.76 530.654 535.48C529 534.147 527.027 533.48 524.734 533.48C522.387 533.48 520.36 534.147 518.654 535.48C517 536.76 515.72 538.573 514.814 540.92C513.907 543.213 513.454 545.907 513.454 549C513.454 552.093 513.907 554.813 514.814 557.16C515.72 559.453 517 561.24 518.654 562.52C520.36 563.8 522.387 564.44 524.734 564.44ZM556.273 571V526.92H563.793L564.593 533.08H564.753C566.779 531.107 568.966 529.427 571.313 528.04C573.659 526.6 576.326 525.88 579.313 525.88C584.006 525.88 587.419 527.4 589.553 530.44C591.739 533.427 592.833 537.72 592.833 543.32V571H583.633V544.44C583.633 540.653 583.046 537.96 581.873 536.36C580.699 534.707 578.806 533.88 576.193 533.88C574.166 533.88 572.353 534.387 570.753 535.4C569.206 536.36 567.446 537.827 565.473 539.8V571H556.273ZM616.594 572.12C614.088 572.12 611.848 571.587 609.874 570.52C607.954 569.453 606.434 567.96 605.314 566.04C604.194 564.12 603.634 561.88 603.634 559.32C603.634 554.573 605.714 550.92 609.874 548.36C614.088 545.747 620.781 543.933 629.954 542.92C629.901 541.213 629.634 539.64 629.154 538.2C628.674 536.76 627.821 535.613 626.594 534.76C625.421 533.853 623.741 533.4 621.554 533.4C619.261 533.4 617.048 533.853 614.914 534.76C612.781 535.667 610.754 536.707 608.834 537.88L605.394 531.64C606.941 530.68 608.648 529.773 610.514 528.92C612.381 528.013 614.381 527.293 616.514 526.76C618.648 526.173 620.861 525.88 623.154 525.88C626.834 525.88 629.848 526.627 632.194 528.12C634.541 529.56 636.274 531.667 637.394 534.44C638.568 537.213 639.154 540.573 639.154 544.52V571H631.634L630.914 565.96H630.594C628.621 567.667 626.461 569.133 624.114 570.36C621.768 571.533 619.261 572.12 616.594 572.12ZM619.394 564.76C621.314 564.76 623.101 564.333 624.754 563.48C626.408 562.573 628.141 561.267 629.954 559.56V548.84C625.634 549.32 622.194 550.04 619.634 551C617.074 551.907 615.234 553 614.114 554.28C613.048 555.507 612.514 556.947 612.514 558.6C612.514 560.787 613.181 562.36 614.514 563.32C615.848 564.28 617.474 564.76 619.394 564.76ZM661.33 572.12C659.09 572.12 657.303 571.667 655.97 570.76C654.637 569.8 653.677 568.467 653.09 566.76C652.503 565 652.21 562.947 652.21 560.6V507.24H661.41V561.08C661.41 562.307 661.623 563.187 662.05 563.72C662.53 564.2 663.037 564.44 663.57 564.44C663.783 564.44 663.997 564.44 664.21 564.44C664.423 564.387 664.743 564.333 665.17 564.28L666.29 571.24C665.757 571.453 665.09 571.64 664.29 571.8C663.49 572.013 662.503 572.12 661.33 572.12Z" fill="white"/>
<g clip-path="url(#clip1_1603_2)">
<rect width="263" height="6" transform="translate(334 665.5)" fill="white"/>
<rect width="88" height="10" transform="translate(333.667 665.145)" fill="#815EC7"/>
</g>
<path d="M611.76 677V675.48H615.04V664.54H612.42V663.38C613.073 663.26 613.64 663.113 614.12 662.94C614.613 662.767 615.06 662.567 615.46 662.34H616.86V675.48H619.8V677H611.76ZM621.314 680.58L627.314 661.12H628.634L622.654 680.58H621.314ZM634.186 677.26C633.426 677.26 632.752 677.167 632.166 676.98C631.592 676.793 631.086 676.547 630.646 676.24C630.206 675.933 629.826 675.6 629.506 675.24L630.446 674.06C630.872 674.5 631.372 674.893 631.946 675.24C632.532 675.573 633.239 675.74 634.066 675.74C634.652 675.74 635.166 675.633 635.606 675.42C636.059 675.193 636.412 674.88 636.666 674.48C636.919 674.067 637.046 673.58 637.046 673.02C637.046 672.433 636.899 671.92 636.606 671.48C636.326 671.04 635.852 670.7 635.186 670.46C634.519 670.207 633.619 670.08 632.486 670.08V668.68C633.499 668.68 634.299 668.56 634.886 668.32C635.472 668.067 635.892 667.727 636.146 667.3C636.412 666.873 636.546 666.4 636.546 665.88C636.546 665.173 636.326 664.613 635.886 664.2C635.446 663.773 634.839 663.56 634.066 663.56C633.479 663.56 632.926 663.693 632.406 663.96C631.899 664.227 631.439 664.567 631.026 664.98L630.046 663.82C630.606 663.313 631.212 662.9 631.866 662.58C632.532 662.247 633.286 662.08 634.126 662.08C634.952 662.08 635.686 662.227 636.326 662.52C636.979 662.8 637.486 663.213 637.846 663.76C638.219 664.307 638.406 664.967 638.406 665.74C638.406 666.633 638.166 667.373 637.686 667.96C637.206 668.547 636.579 668.98 635.806 669.26V669.36C636.379 669.493 636.899 669.727 637.366 670.06C637.832 670.393 638.206 670.813 638.486 671.32C638.766 671.827 638.906 672.413 638.906 673.08C638.906 673.947 638.692 674.693 638.266 675.32C637.839 675.947 637.272 676.427 636.566 676.76C635.859 677.093 635.066 677.26 634.186 677.26Z" fill="white"/>
<path d="M1797.85 1023.87C1819.94 1023.87 1837.85 1005.96 1837.85 983.871C1837.85 961.78 1819.94 943.871 1797.85 943.871C1775.76 943.871 1757.85 961.78 1757.85 983.871C1757.85 1005.96 1775.76 1023.87 1797.85 1023.87Z" stroke="white" stroke-width="3" stroke-linecap="round" stroke-linejoin="round"/>
<path d="M1781.85 980.555L1797.85 996.555L1813.85 980.555" stroke="white" stroke-width="3" stroke-linecap="round" stroke-linejoin="round"/>
<g filter="url(#filter2_f_1603_2)">
<ellipse cx="1326.93" cy="1039.56" rx="456.648" ry="280.559" transform="rotate(-0.351673 1326.93 1039.56)" fill="#6961FF" fill-opacity="0.6"/>
</g>
</g>
<defs>
<filter id="filter0_f_1603_2" x="761.919" y="-762.738" width="1862.4" height="1544.33" filterUnits="userSpaceOnUse" color-interpolation-filters="sRGB">
<feFlood flood-opacity="0" result="BackgroundImageFix"/>
<feBlend mode="normal" in="SourceGraphic" in2="BackgroundImageFix" result="shape"/>
<feGaussianBlur stdDeviation="250" result="effect1_foregroundBlur_1603_2"/>
</filter>
<filter id="filter1_f_1603_2" x="758.747" y="-120.246" width="1031.05" height="992.113" filterUnits="userSpaceOnUse" color-interpolation-filters="sRGB">
<feFlood flood-opacity="0" result="BackgroundImageFix"/>
<feBlend mode="normal" in="SourceGraphic" in2="BackgroundImageFix" result="shape"/>
<feGaussianBlur stdDeviation="100" result="effect1_foregroundBlur_1603_2"/>
</filter>
<filter id="filter2_f_1603_2" x="370.286" y="258.996" width="1913.29" height="1561.14" filterUnits="userSpaceOnUse" color-interpolation-filters="sRGB">
<feFlood flood-opacity="0" result="BackgroundImageFix"/>
<feBlend mode="normal" in="SourceGraphic" in2="BackgroundImageFix" result="shape"/>
<feGaussianBlur stdDeviation="250" result="effect1_foregroundBlur_1603_2"/>
</filter>
<linearGradient id="paint0_linear_1603_2" x1="103.091" y1="-262.578" x2="408.262" y2="1292.49" gradientUnits="userSpaceOnUse">
<stop stop-color="#F4C4FF"/>
<stop offset="0.618426" stop-color="#E5D8FF"/>
<stop offset="1" stop-color="#B8ACFF"/>
</linearGradient>
<clipPath id="clip0_1603_2">
<rect width="1920" height="1080" fill="white"/>
</clipPath>
<clipPath id="clip1_1603_2">
<rect width="263" height="6" fill="white" transform="translate(334 665.5)"/>
</clipPath>
</defs>
</svg>
